# xmcd
#
# Track frame offsets: 
#        150
#        19336
#        38968
#        57098
#        85906
#        100592
#        157237
#        173748
#        209106
#        231373
#        262603
#
# Disc length: 3663 seconds
#
# Revision: 1
# Processed by: cddbd v1.5.2PL0 Copyright (c) Steve Scherf et al.
# Submitted via: ExactAudioCopy v1.0b4
#
DISCID=8f0e4d0b
DTITLE=Pete Cornelius And The Devilles - Gotta' Live
DYEAR=2001
DGENRE=Blues
TTITLE0=Gotta' Live
TTITLE1=Nearly Caused Me The Blues
TTITLE2=She's My Baby
TTITLE3=All My Hearos Are Dead
TTITLE4=Blues Fell This Morning
TTITLE5=Love Can't Be Sold
TTITLE6=One Way Love
TTITLE7=Blues For You
TTITLE8=Riders On The Storm
TTITLE9=Hey Joe
TTITLE10=Diddy Wha Diddy
EXTD=YEAR: 2001
EXTT0=
EXTT1=
EXTT2=
EXTT3=
EXTT4=
EXTT5=
EXTT6=
EXTT7=
EXTT8=
EXTT9=
EXTT10=
PLAYORDER=
